<mxfile host="www.draw.io" modified="2019-10-21T08:22:22.174Z" agent="Mozilla/5.0 (Macintosh; Intel Mac OS X 10_14_6) AppleWebKit/605.1.15 (KHTML, like Gecko) Version/13.0.2 Safari/605.1.15" etag="l9cGkqiUub-zztN5s_Oo" version="12.1.3" type="github" pages="1">
  <diagram id="qgZHERH_87Z8clIUmnNH" name="Page-1">
    <mxGraphModel dx="932" dy="569" grid="0" gridSize="10" guides="1" tooltips="1" connect="1" arrows="1" fold="1" page="1" pageScale="1" pageWidth="3300" pageHeight="4681" math="0" shadow="0">
      <root>
        <mxCell id="0"/>
        <mxCell id="1" parent="0"/>
        <mxCell id="kzFH_zLRW4JFLJ3xmaaE-21" style="edgeStyle=orthogonalEdgeStyle;rounded=0;orthogonalLoop=1;jettySize=auto;html=1;exitX=0.665;exitY=1.014;exitDx=0;exitDy=0;entryX=0.25;entryY=0;entryDx=0;entryDy=0;strokeColor=#6C8EBF;strokeWidth=2;fontSize=10;exitPerimeter=0;" parent="1" source="kzFH_zLRW4JFLJ3xmaaE-1" target="kzFH_zLRW4JFLJ3xmaaE-7" edge="1">
          <mxGeometry relative="1" as="geometry">
            <Array as="points">
              <mxPoint x="402" y="386"/>
            </Array>
          </mxGeometry>
        </mxCell>
        <mxCell id="kzFH_zLRW4JFLJ3xmaaE-1" value="区块链服务平台" style="rounded=0;whiteSpace=wrap;html=1;fontSize=16;fillColor=#dae8fc;strokeColor=#6c8ebf;" parent="1" vertex="1">
          <mxGeometry x="196" y="315" width="313" height="70" as="geometry"/>
        </mxCell>
        <mxCell id="kzFH_zLRW4JFLJ3xmaaE-2" value="U链福费廷业务应用" style="rounded=0;whiteSpace=wrap;html=1;fontSize=16;fillColor=#ffe6cc;strokeColor=#d79b00;" parent="1" vertex="1">
          <mxGeometry x="193.5" y="177" width="181" height="60" as="geometry"/>
        </mxCell>
        <mxCell id="kzFH_zLRW4JFLJ3xmaaE-3" value="U链托管业务应用" style="rounded=0;whiteSpace=wrap;html=1;fontSize=16;fillColor=#ffe6cc;strokeColor=#d79b00;" parent="1" vertex="1">
          <mxGeometry x="387.5" y="177" width="181" height="60" as="geometry"/>
        </mxCell>
        <mxCell id="kzFH_zLRW4JFLJ3xmaaE-4" value="企业数据总线" style="rounded=0;whiteSpace=wrap;html=1;fontSize=16;fillColor=#f5f5f5;strokeColor=#666666;fontColor=#333333;" parent="1" vertex="1">
          <mxGeometry x="205.5" y="458" width="148" height="60" as="geometry"/>
        </mxCell>
        <mxCell id="kzFH_zLRW4JFLJ3xmaaE-30" style="edgeStyle=orthogonalEdgeStyle;rounded=0;orthogonalLoop=1;jettySize=auto;html=1;exitX=0.5;exitY=1;exitDx=0;exitDy=0;strokeColor=#6C8EBF;strokeWidth=2;fontSize=10;" parent="1" source="kzFH_zLRW4JFLJ3xmaaE-5" target="kzFH_zLRW4JFLJ3xmaaE-8" edge="1">
          <mxGeometry relative="1" as="geometry"/>
        </mxCell>
        <mxCell id="kzFH_zLRW4JFLJ3xmaaE-5" value="企业服务总线" style="rounded=0;whiteSpace=wrap;html=1;fontSize=16;" parent="1" vertex="1">
          <mxGeometry x="523.5" y="458" width="148" height="60" as="geometry"/>
        </mxCell>
        <mxCell id="kzFH_zLRW4JFLJ3xmaaE-31" style="edgeStyle=orthogonalEdgeStyle;rounded=0;orthogonalLoop=1;jettySize=auto;html=1;exitX=1;exitY=0.5;exitDx=0;exitDy=0;entryX=0.5;entryY=1;entryDx=0;entryDy=0;strokeColor=#6C8EBF;strokeWidth=2;fontSize=10;" parent="1" source="kzFH_zLRW4JFLJ3xmaaE-6" target="kzFH_zLRW4JFLJ3xmaaE-7" edge="1">
          <mxGeometry relative="1" as="geometry"/>
        </mxCell>
        <mxCell id="kzFH_zLRW4JFLJ3xmaaE-6" value="柜员管理系统" style="rounded=0;whiteSpace=wrap;html=1;fontSize=16;fillColor=#fff2cc;strokeColor=#d6b656;" parent="1" vertex="1">
          <mxGeometry x="205.5" y="579" width="148" height="60" as="geometry"/>
        </mxCell>
        <mxCell id="kzFH_zLRW4JFLJ3xmaaE-7" value="渠道管理平台" style="rounded=0;whiteSpace=wrap;html=1;fontSize=16;fillColor=#fff2cc;strokeColor=#d6b656;" parent="1" vertex="1">
          <mxGeometry x="364.5" y="458" width="148" height="60" as="geometry"/>
        </mxCell>
        <mxCell id="kzFH_zLRW4JFLJ3xmaaE-8" value="短信平台" style="rounded=0;whiteSpace=wrap;html=1;fontSize=16;fillColor=#fff2cc;strokeColor=#d6b656;" parent="1" vertex="1">
          <mxGeometry x="523.5" y="579" width="148" height="60" as="geometry"/>
        </mxCell>
        <mxCell id="kzFH_zLRW4JFLJ3xmaaE-11" value="" style="endArrow=none;startArrow=classic;html=1;strokeColor=#d79b00;strokeWidth=2;fontSize=16;entryX=0.75;entryY=1;entryDx=0;entryDy=0;fillColor=#ffe6cc;endFill=0;" parent="1" edge="1">
          <mxGeometry width="50" height="50" relative="1" as="geometry">
            <mxPoint x="337" y="309" as="sourcePoint"/>
            <mxPoint x="336.75" y="242" as="targetPoint"/>
          </mxGeometry>
        </mxCell>
        <mxCell id="kzFH_zLRW4JFLJ3xmaaE-12" value="" style="endArrow=none;startArrow=classic;html=1;strokeColor=#d79b00;strokeWidth=2;fontSize=16;entryX=0.25;entryY=1;entryDx=0;entryDy=0;fillColor=#ffe6cc;endFill=0;" parent="1" edge="1">
          <mxGeometry width="50" height="50" relative="1" as="geometry">
            <mxPoint x="442" y="310" as="sourcePoint"/>
            <mxPoint x="441.75" y="242" as="targetPoint"/>
          </mxGeometry>
        </mxCell>
        <mxCell id="kzFH_zLRW4JFLJ3xmaaE-13" value="发送交易" style="text;html=1;resizable=0;points=[];autosize=1;align=left;verticalAlign=top;spacingTop=-4;fontSize=10;" parent="1" vertex="1">
          <mxGeometry x="290.5" y="283.5" width="74" height="19" as="geometry"/>
        </mxCell>
        <mxCell id="kzFH_zLRW4JFLJ3xmaaE-14" value="结果返回" style="text;html=1;resizable=0;points=[];autosize=1;align=left;verticalAlign=top;spacingTop=-4;fontSize=10;" parent="1" vertex="1">
          <mxGeometry x="292" y="253" width="58" height="12" as="geometry"/>
        </mxCell>
        <mxCell id="kzFH_zLRW4JFLJ3xmaaE-15" value="发送交易" style="text;html=1;resizable=0;points=[];autosize=1;align=left;verticalAlign=top;spacingTop=-4;fontSize=10;" parent="1" vertex="1">
          <mxGeometry x="394" y="283.5" width="58" height="12" as="geometry"/>
        </mxCell>
        <mxCell id="kzFH_zLRW4JFLJ3xmaaE-16" value="结果返回" style="text;html=1;resizable=0;points=[];autosize=1;align=left;verticalAlign=top;spacingTop=-4;fontSize=10;" parent="1" vertex="1">
          <mxGeometry x="394" y="253" width="58" height="12" as="geometry"/>
        </mxCell>
        <mxCell id="kzFH_zLRW4JFLJ3xmaaE-17" value="" style="endArrow=classic;html=1;strokeColor=#6C8EBF;strokeWidth=2;fontSize=10;entryX=0.5;entryY=1;entryDx=0;entryDy=0;exitX=0.5;exitY=0;exitDx=0;exitDy=0;" parent="1" source="kzFH_zLRW4JFLJ3xmaaE-6" target="kzFH_zLRW4JFLJ3xmaaE-4" edge="1">
          <mxGeometry width="50" height="50" relative="1" as="geometry">
            <mxPoint x="261" y="593" as="sourcePoint"/>
            <mxPoint x="311" y="543" as="targetPoint"/>
          </mxGeometry>
        </mxCell>
        <mxCell id="kzFH_zLRW4JFLJ3xmaaE-18" value="柜员信息" style="text;html=1;resizable=0;points=[];autosize=1;align=left;verticalAlign=top;spacingTop=-4;fontSize=10;" parent="1" vertex="1">
          <mxGeometry x="221.5" y="547" width="58" height="12" as="geometry"/>
        </mxCell>
        <mxCell id="kzFH_zLRW4JFLJ3xmaaE-19" value="批量" style="text;html=1;resizable=0;points=[];autosize=1;align=left;verticalAlign=top;spacingTop=-4;fontSize=10;" parent="1" vertex="1">
          <mxGeometry x="279.5" y="547" width="34" height="12" as="geometry"/>
        </mxCell>
        <mxCell id="kzFH_zLRW4JFLJ3xmaaE-20" value="" style="endArrow=classic;html=1;strokeColor=#6C8EBF;strokeWidth=2;fontSize=10;exitX=0.25;exitY=1;exitDx=0;exitDy=0;" parent="1" source="kzFH_zLRW4JFLJ3xmaaE-1" edge="1">
          <mxGeometry width="50" height="50" relative="1" as="geometry">
            <mxPoint x="297" y="446" as="sourcePoint"/>
            <mxPoint x="273" y="457" as="targetPoint"/>
          </mxGeometry>
        </mxCell>
        <mxCell id="kzFH_zLRW4JFLJ3xmaaE-22" value="批量" style="text;html=1;resizable=0;points=[];autosize=1;align=left;verticalAlign=top;spacingTop=-4;fontSize=10;" parent="1" vertex="1">
          <mxGeometry x="275" y="410" width="34" height="12" as="geometry"/>
        </mxCell>
        <mxCell id="kzFH_zLRW4JFLJ3xmaaE-23" value="登录授权验证" style="text;html=1;resizable=0;points=[];autosize=1;align=left;verticalAlign=top;spacingTop=-4;fontSize=10;" parent="1" vertex="1">
          <mxGeometry x="336" y="415.5" width="82" height="12" as="geometry"/>
        </mxCell>
        <mxCell id="kzFH_zLRW4JFLJ3xmaaE-26" value="实时" style="text;html=1;resizable=0;points=[];autosize=1;align=left;verticalAlign=top;spacingTop=-4;fontSize=10;" parent="1" vertex="1">
          <mxGeometry x="401" y="409.5" width="34" height="12" as="geometry"/>
        </mxCell>
        <mxCell id="kzFH_zLRW4JFLJ3xmaaE-27" value="" style="endArrow=classic;html=1;strokeColor=#6C8EBF;strokeWidth=2;fontSize=10;exitX=0.75;exitY=1;exitDx=0;exitDy=0;entryX=0.25;entryY=0;entryDx=0;entryDy=0;" parent="1" source="kzFH_zLRW4JFLJ3xmaaE-1" target="kzFH_zLRW4JFLJ3xmaaE-5" edge="1">
          <mxGeometry width="50" height="50" relative="1" as="geometry">
            <mxPoint x="615" y="429" as="sourcePoint"/>
            <mxPoint x="665" y="379" as="targetPoint"/>
          </mxGeometry>
        </mxCell>
        <mxCell id="kzFH_zLRW4JFLJ3xmaaE-28" value="告警信息" style="text;html=1;resizable=0;points=[];autosize=1;align=left;verticalAlign=top;spacingTop=-4;fontSize=10;" parent="1" vertex="1">
          <mxGeometry x="483.5" y="403.5" width="58" height="12" as="geometry"/>
        </mxCell>
        <mxCell id="kzFH_zLRW4JFLJ3xmaaE-29" value="实时" style="text;html=1;resizable=0;points=[];autosize=1;align=left;verticalAlign=top;spacingTop=-4;fontSize=10;" parent="1" vertex="1">
          <mxGeometry x="495.5" y="433" width="34" height="12" as="geometry"/>
        </mxCell>
        <mxCell id="kzFH_zLRW4JFLJ3xmaaE-32" value="柜员信息" style="text;html=1;resizable=0;points=[];autosize=1;align=left;verticalAlign=top;spacingTop=-4;fontSize=10;" parent="1" vertex="1">
          <mxGeometry x="386" y="547" width="58" height="12" as="geometry"/>
        </mxCell>
        <mxCell id="kzFH_zLRW4JFLJ3xmaaE-35" value="实时" style="text;html=1;resizable=0;points=[];autosize=1;align=left;verticalAlign=top;spacingTop=-4;fontSize=10;" parent="1" vertex="1">
          <mxGeometry x="444" y="547" width="34" height="12" as="geometry"/>
        </mxCell>
        <mxCell id="kzFH_zLRW4JFLJ3xmaaE-36" value="实时" style="text;html=1;resizable=0;points=[];autosize=1;align=left;verticalAlign=top;spacingTop=-4;fontSize=10;" parent="1" vertex="1">
          <mxGeometry x="604" y="544" width="34" height="12" as="geometry"/>
        </mxCell>
        <mxCell id="l6NJx7o8SLxmMhIEBYuW-1" value="实时" style="text;html=1;resizable=0;points=[];autosize=1;align=center;verticalAlign=top;spacingTop=-4;" parent="1" vertex="1">
          <mxGeometry x="336" y="273" width="34" height="14" as="geometry"/>
        </mxCell>
        <mxCell id="l6NJx7o8SLxmMhIEBYuW-2" value="实时" style="text;html=1;resizable=0;points=[];autosize=1;align=left;verticalAlign=top;spacingTop=-4;" parent="1" vertex="1">
          <mxGeometry x="445" y="259" width="34" height="14" as="geometry"/>
        </mxCell>
        <mxCell id="l6NJx7o8SLxmMhIEBYuW-4" value="" style="endArrow=classic;html=1;entryX=0.293;entryY=1.017;entryDx=0;entryDy=0;entryPerimeter=0;strokeWidth=2;fillColor=#ffe6cc;strokeColor=#d79b00;" parent="1" edge="1">
          <mxGeometry width="50" height="50" relative="1" as="geometry">
            <mxPoint x="254" y="314" as="sourcePoint"/>
            <mxPoint x="254.0329999999999" y="243.01999999999998" as="targetPoint"/>
          </mxGeometry>
        </mxCell>
        <mxCell id="l6NJx7o8SLxmMhIEBYuW-5" value="事件接收" style="text;html=1;resizable=0;points=[];autosize=1;align=left;verticalAlign=top;spacingTop=-4;" parent="1" vertex="1">
          <mxGeometry x="202" y="271.5" width="58" height="14" as="geometry"/>
        </mxCell>
        <mxCell id="l6NJx7o8SLxmMhIEBYuW-6" value="异步" style="text;html=1;resizable=0;points=[];autosize=1;align=left;verticalAlign=top;spacingTop=-4;" parent="1" vertex="1">
          <mxGeometry x="253.5" y="275.5" width="34" height="14" as="geometry"/>
        </mxCell>
        <mxCell id="l6NJx7o8SLxmMhIEBYuW-7" value="" style="endArrow=classic;html=1;entryX=0.293;entryY=1.017;entryDx=0;entryDy=0;entryPerimeter=0;strokeWidth=2;fillColor=#ffe6cc;strokeColor=#d79b00;" parent="1" edge="1">
          <mxGeometry width="50" height="50" relative="1" as="geometry">
            <mxPoint x="495.5" y="313" as="sourcePoint"/>
            <mxPoint x="495.5329999999999" y="242.01999999999998" as="targetPoint"/>
          </mxGeometry>
        </mxCell>
        <mxCell id="l6NJx7o8SLxmMhIEBYuW-8" value="事件接收" style="text;html=1;resizable=0;points=[];autosize=1;align=left;verticalAlign=top;spacingTop=-4;" parent="1" vertex="1">
          <mxGeometry x="480" y="261.5" width="58" height="14" as="geometry"/>
        </mxCell>
        <mxCell id="l6NJx7o8SLxmMhIEBYuW-9" value="异步" style="text;html=1;resizable=0;points=[];autosize=1;align=left;verticalAlign=top;spacingTop=-4;" parent="1" vertex="1">
          <mxGeometry x="466" y="283.5" width="34" height="14" as="geometry"/>
        </mxCell>
        <mxCell id="czDdK5T--2MEwWLi9WfN-2" style="edgeStyle=orthogonalEdgeStyle;rounded=0;orthogonalLoop=1;jettySize=auto;html=1;exitX=0.5;exitY=1;exitDx=0;exitDy=0;fillColor=#d5e8d4;strokeColor=#82b366;strokeWidth=2;" edge="1" parent="1" source="czDdK5T--2MEwWLi9WfN-1" target="kzFH_zLRW4JFLJ3xmaaE-5">
          <mxGeometry relative="1" as="geometry"/>
        </mxCell>
        <mxCell id="czDdK5T--2MEwWLi9WfN-1" value="监控平台" style="rounded=0;whiteSpace=wrap;html=1;fillColor=#d5e8d4;strokeColor=#82b366;" vertex="1" parent="1">
          <mxGeometry x="537.5" y="316" width="120" height="70" as="geometry"/>
        </mxCell>
        <mxCell id="czDdK5T--2MEwWLi9WfN-3" value="&lt;span style=&quot;font-size: 10px&quot;&gt;告警信息&lt;/span&gt;" style="text;html=1;resizable=0;points=[];autosize=1;align=left;verticalAlign=top;spacingTop=-4;" vertex="1" parent="1">
          <mxGeometry x="596" y="403.5" width="50" height="14" as="geometry"/>
        </mxCell>
        <mxCell id="czDdK5T--2MEwWLi9WfN-4" value="&lt;span style=&quot;font-size: 10px&quot;&gt;实时&lt;/span&gt;" style="text;html=1;resizable=0;points=[];autosize=1;align=left;verticalAlign=top;spacingTop=-4;" vertex="1" parent="1">
          <mxGeometry x="574" y="419" width="30" height="14" as="geometry"/>
        </mxCell>
      </root>
    </mxGraphModel>
  </diagram>
</mxfile>
